<?xml version="1.0" standalone="no"?>
<!DOCTYPE svg PUBLIC "-//W3C//DTD SVG 20010904//EN"
 "http://www.w3.org/TR/2001/REC-SVG-20010904/DTD/svg10.dtd">
<svg version="1.0" xmlns="http://www.w3.org/2000/svg"
 width="133.000000pt" height="133.000000pt" viewBox="0 0 133.000000 133.000000"
 preserveAspectRatio="xMidYMid meet">
<metadata>
Created by potrace 1.11, written by Peter Selinger 2001-2013
</metadata>
<g transform="translate(0.000000,133.000000) scale(0.100000,-0.100000)"
fill="#000000" stroke="none">
<path d="M507 1145 c-207 -69 -347 -261 -347 -475 0 -272 228 -500 500 -500
333 0 579 334 477 647 -71 215 -261 354 -482 352 -56 0 -101 -8 -148 -24z
m323 -112 c83 -39 154 -110 194 -193 29 -60 31 -73 31 -170 0 -97 -2 -110 -31
-170 -40 -83 -111 -154 -194 -194 -60 -29 -73 -31 -170 -31 -97 0 -110 2 -170
31 -83 40 -154 111 -194 194 -29 60 -31 73 -31 170 0 97 2 110 31 170 35 72
107 151 169 183 74 38 117 47 210 44 76 -2 100 -7 155 -34z"/>
<path d="M805 896 c-28 -43 -29 -87 -3 -126 13 -19 33 -36 45 -38 31 -5 63 42
63 93 0 79 -69 126 -105 71z"/>
<path d="M432 844 c-12 -8 -22 -26 -22 -40 0 -28 2 -28 54 -10 28 10 48 11 70
4 17 -5 39 -12 49 -15 25 -8 22 31 -5 57 -27 25 -112 28 -146 4z"/>
<path d="M933 601 c-73 -86 -228 -137 -393 -129 -54 3 -105 9 -112 15 -7 5
-21 13 -31 16 -26 10 -6 -23 38 -62 71 -62 110 -76 215 -76 86 0 100 3 148 29
59 33 112 86 140 143 18 35 38 103 30 103 -2 -1 -17 -18 -35 -39z"/>
</g>
</svg>
